<svg width="80" height="600" viewBox="0 0 80 600" fill="none" xmlns="http://www.w3.org/2000/svg">
  <!-- Engrenage 1 -->
  <g transform="translate(40,60)">
    <circle r="28" fill="#7c5c2b"/>
    <g>
      <g>
        <rect x="-2" y="-34" width="4" height="10" rx="2" fill="#e2c48d"/>
        <rect x="-2" y="24" width="4" height="10" rx="2" fill="#e2c48d"/>
      </g>
      <g transform="rotate(45)">
        <rect x="-2" y="-34" width="4" height="10" rx="2" fill="#e2c48d"/>
        <rect x="-2" y="24" width="4" height="10" rx="2" fill="#e2c48d"/>
      </g>
      <g transform="rotate(90)">
        <rect x="-2" y="-34" width="4" height="10" rx="2" fill="#e2c48d"/>
        <rect x="-2" y="24" width="4" height="10" rx="2" fill="#e2c48d"/>
      </g>
      <g transform="rotate(135)">
        <rect x="-2" y="-34" width="4" height="10" rx="2" fill="#e2c48d"/>
        <rect x="-2" y="24" width="4" height="10" rx="2" fill="#e2c48d"/>
      </g>
    </g>
    <circle r="10" fill="#a67c52"/>
  </g>
  <!-- Engrenage 2 -->
  <g transform="translate(40,180)">
    <circle r="18" fill="#e2c48d"/>
    <g>
      <g>
        <rect x="-1.5" y="-22" width="3" height="7" rx="1.5" fill="#7c5c2b"/>
        <rect x="-1.5" y="15" width="3" height="7" rx="1.5" fill="#7c5c2b"/>
      </g>
      <g transform="rotate(60)">
        <rect x="-1.5" y="-22" width="3" height="7" rx="1.5" fill="#7c5c2b"/>
        <rect x="-1.5" y="15" width="3" height="7" rx="1.5" fill="#7c5c2b"/>
      </g>
      <g transform="rotate(120)">
        <rect x="-1.5" y="-22" width="3" height="7" rx="1.5" fill="#7c5c2b"/>
        <rect x="-1.5" y="15" width="3" height="7" rx="1.5" fill="#7c5c2b"/>
      </g>
    </g>
    <circle r="6" fill="#a67c52"/>
  </g>
  <!-- Engrenage 3 -->
  <g transform="translate(40,320)">
    <circle r="14" fill="#a67c52"/>
    <g>
      <g>
        <rect x="-1" y="-16" width="2" height="5" rx="1" fill="#3a2c19"/>
        <rect x="-1" y="11" width="2" height="5" rx="1" fill="#3a2c19"/>
      </g>
      <g transform="rotate(90)">
        <rect x="-1" y="-16" width="2" height="5" rx="1" fill="#3a2c19"/>
        <rect x="-1" y="11" width="2" height="5" rx="1" fill="#3a2c19"/>
      </g>
      <g transform="rotate(45)">
        <rect x="-1" y="-16" width="2" height="5" rx="1" fill="#3a2c19"/>
        <rect x="-1" y="11" width="2" height="5" rx="1" fill="#3a2c19"/>
      </g>
      <g transform="rotate(135)">
        <rect x="-1" y="-16" width="2" height="5" rx="1" fill="#3a2c19"/>
        <rect x="-1" y="11" width="2" height="5" rx="1" fill="#3a2c19"/>
      </g>
    </g>
    <circle r="4" fill="#e2c48d"/>
  </g>
  <!-- Engrenage 4 -->
  <g transform="translate(40,420)">
    <circle r="20" fill="#3a2c19"/>
    <g>
      <g>
        <rect x="-1.5" y="-25" width="3" height="8" rx="1.5" fill="#bfa76f"/>
        <rect x="-1.5" y="17" width="3" height="8" rx="1.5" fill="#bfa76f"/>
      </g>
      <g transform="rotate(30)">
        <rect x="-1.5" y="-25" width="3" height="8" rx="1.5" fill="#bfa76f"/>
        <rect x="-1.5" y="17" width="3" height="8" rx="1.5" fill="#bfa76f"/>
      </g>
      <g transform="rotate(60)">
        <rect x="-1.5" y="-25" width="3" height="8" rx="1.5" fill="#bfa76f"/>
        <rect x="-1.5" y="17" width="3" height="8" rx="1.5" fill="#bfa76f"/>
      </g>
      <g transform="rotate(90)">
        <rect x="-1.5" y="-25" width="3" height="8" rx="1.5" fill="#bfa76f"/>
        <rect x="-1.5" y="17" width="3" height="8" rx="1.5" fill="#bfa76f"/>
      </g>
      <g transform="rotate(120)">
        <rect x="-1.5" y="-25" width="3" height="8" rx="1.5" fill="#bfa76f"/>
        <rect x="-1.5" y="17" width="3" height="8" rx="1.5" fill="#bfa76f"/>
      </g>
      <g transform="rotate(150)">
        <rect x="-1.5" y="-25" width="3" height="8" rx="1.5" fill="#bfa76f"/>
        <rect x="-1.5" y="17" width="3" height="8" rx="1.5" fill="#bfa76f"/>
      </g>
    </g>
    <circle r="7" fill="#a67c52"/>
  </g>
  <!-- Engrenage 5 -->
  <g transform="translate(40,540)">
    <circle r="10" fill="#bfa76f"/>
    <g>
      <g>
        <rect x="-0.7" y="-13" width="1.4" height="4" rx="0.7" fill="#7c5c2b"/>
        <rect x="-0.7" y="9" width="1.4" height="4" rx="0.7" fill="#7c5c2b"/>
      </g>
      <g transform="rotate(60)">
        <rect x="-0.7" y="-13" width="1.4" height="4" rx="0.7" fill="#7c5c2b"/>
        <rect x="-0.7" y="9" width="1.4" height="4" rx="0.7" fill="#7c5c2b"/>
      </g>
      <g transform="rotate(120)">
        <rect x="-0.7" y="-13" width="1.4" height="4" rx="0.7" fill="#7c5c2b"/>
        <rect x="-0.7" y="9" width="1.4" height="4" rx="0.7" fill="#7c5c2b"/>
      </g>
    </g>
    <circle r="3" fill="#3a2c19"/>
  </g>
</svg>
